<?xml version="1.0" standalone="no"?>
<!DOCTYPE svg PUBLIC "-//W3C//DTD SVG 20010904//EN"
 "http://www.w3.org/TR/2001/REC-SVG-20010904/DTD/svg10.dtd">
<svg version="1.0" xmlns="http://www.w3.org/2000/svg"
 width="984.000000pt" height="984.000000pt" viewBox="0 0 984.000000 984.000000"
 preserveAspectRatio="xMidYMid meet">
<metadata>
Created by potrace 1.14, written by Peter Selinger 2001-2017
</metadata>
<g transform="translate(0.000000,984.000000) scale(0.100000,-0.100000)"
fill="#000000" stroke="none">
<path d="M4809 9835 c-3 -2 -27 -7 -54 -11 -27 -3 -61 -11 -75 -16 -14 -5 -26
-9 -28 -8 -24 9 -372 -151 -372 -171 0 -5 -9 -9 -20 -9 -11 0 -20 -4 -20 -8 0
-4 -12 -13 -27 -20 -31 -14 -47 -23 -173 -98 -47 -27 -92 -53 -100 -57 -8 -4
-33 -18 -55 -32 -22 -14 -52 -30 -67 -36 -16 -6 -28 -15 -28 -19 0 -5 -9 -12
-20 -15 -11 -4 -49 -24 -85 -46 -36 -21 -68 -39 -72 -39 -3 0 -14 -6 -22 -14
-9 -7 -41 -26 -71 -42 -30 -15 -62 -33 -70 -40 -8 -6 -35 -23 -60 -36 -25 -14
-63 -36 -85 -48 -22 -13 -56 -33 -76 -44 -77 -44 -195 -112 -238 -138 -26 -15
-57 -33 -71 -40 -14 -7 -49 -27 -78 -45 -29 -18 -54 -33 -56 -33 -2 0 -34 -18
-70 -40 -36 -22 -68 -40 -70 -40 -3 0 -41 -22 -86 -50 -45 -27 -83 -50 -85
-50 -2 0 -28 -14 -57 -31 -66 -39 -77 -46 -268 -155 -85 -49 -158 -93 -162
-99 -4 -5 -8 -6 -8 -1 0 5 -8 2 -17 -6 -10 -8 -43 -28 -73 -44 -30 -16 -57
-32 -60 -35 -3 -4 -30 -19 -60 -35 -30 -15 -57 -31 -60 -34 -3 -4 -43 -28 -90
-54 -47 -26 -92 -51 -100 -56 -69 -42 -153 -90 -159 -90 -5 0 -18 -9 -31 -20
-13 -11 -29 -20 -37 -20 -7 0 -13 -4 -13 -10 0 -5 -3 -9 -7 -8 -5 1 -19 -5
-33 -13 -71 -45 -131 -79 -140 -79 -6 0 -10 -4 -10 -10 0 -5 -5 -10 -11 -10
-47 0 -294 -217 -359 -315 -19 -27 -37 -52 -40 -55 -22 -16 -109 -228 -126
-305 -8 -38 -15 -77 -22 -120 -9 -65 -9 -4063 0 -4135 9 -69 45 -205 65 -247
8 -17 16 -38 17 -46 3 -25 85 -157 137 -222 26 -33 79 -89 117 -123 64 -58 87
-77 147 -114 11 -7 22 -15 25 -18 10 -11 220 -130 229 -130 5 0 11 -3 13 -7 4
-10 57 -42 81 -50 9 -3 17 -9 17 -14 0 -5 6 -9 13 -9 6 0 32 -13 56 -29 25
-17 48 -28 52 -25 4 2 9 0 11 -4 4 -10 125 -82 138 -82 4 0 10 -4 12 -8 3 -7
126 -80 153 -91 6 -2 12 -7 15 -10 5 -6 79 -47 117 -65 13 -6 23 -14 23 -18 0
-5 4 -8 9 -8 5 0 92 -47 192 -105 100 -58 186 -105 191 -105 4 0 8 -4 8 -9 0
-5 8 -12 18 -15 22 -8 80 -41 158 -89 34 -20 65 -37 69 -37 4 0 19 -8 33 -19
15 -10 44 -28 65 -40 20 -11 52 -30 71 -40 18 -11 44 -25 57 -33 13 -7 26 -15
29 -18 3 -3 14 -10 25 -16 11 -6 97 -54 190 -108 196 -112 177 -101 278 -160
43 -25 82 -46 87 -46 6 0 10 -4 10 -10 0 -5 4 -10 10 -10 5 0 44 -20 86 -45
41 -25 78 -45 80 -45 2 0 23 -11 45 -26 22 -14 55 -33 72 -43 18 -10 109 -62
202 -116 94 -54 183 -106 200 -114 16 -9 32 -18 35 -21 3 -3 25 -16 50 -29 25
-13 52 -30 61 -37 8 -8 18 -14 21 -14 3 0 32 -15 65 -33 32 -18 85 -43 118
-56 33 -12 67 -26 76 -31 8 -4 58 -18 110 -31 127 -31 322 -33 449 -5 14 3 35
8 47 10 54 11 178 62 283 118 63 33 117 63 120 67 3 3 16 12 30 18 14 7 48 26
75 42 28 16 73 42 100 56 28 15 57 33 66 41 8 8 18 14 21 14 4 0 52 27 108 60
56 33 104 60 106 60 3 0 30 16 60 35 30 19 60 36 67 38 7 1 14 5 17 8 4 5 63
40 164 97 17 9 68 40 115 68 48 27 93 53 101 57 8 4 33 18 55 32 22 13 51 30
65 37 24 12 103 59 145 86 11 6 27 15 35 19 8 4 52 28 97 55 45 26 86 48 92
48 6 0 11 4 11 9 0 5 8 11 18 15 9 3 31 14 47 24 17 10 57 34 90 52 33 18 67
38 75 44 8 7 26 17 40 24 14 6 43 23 65 36 22 14 51 31 65 39 38 21 411 237
445 258 17 10 37 22 45 26 8 4 63 34 121 68 58 34 112 65 120 68 8 4 28 16 44
27 17 11 37 23 45 26 8 4 40 22 70 39 224 132 281 165 286 165 3 0 58 34 122
76 81 53 145 105 209 171 51 52 93 98 93 102 0 4 11 21 25 36 22 26 107 185
111 210 1 6 9 29 18 53 8 23 13 42 9 42 -3 0 0 7 7 15 7 8 10 15 7 15 -3 0 -2
14 3 31 5 17 13 57 17 88 11 76 10 4071 0 4141 -17 110 -21 126 -47 203 -57
166 -128 276 -262 410 -54 53 -103 97 -107 97 -5 0 -16 6 -24 14 -12 13 -313
196 -322 196 -3 0 -125 71 -155 90 -8 6 -26 16 -40 22 -14 7 -43 24 -65 38
-22 15 -55 33 -72 41 -18 8 -33 17 -33 20 0 4 -15 12 -32 20 -18 7 -35 15 -38
18 -6 7 -36 25 -145 87 -44 24 -87 49 -95 54 -52 32 -153 90 -156 90 -3 0 -21
11 -42 23 -20 13 -57 35 -82 49 -107 60 -126 71 -135 78 -9 6 -49 29 -150 84
-11 6 -22 14 -25 17 -3 3 -30 19 -60 35 -30 17 -126 72 -213 122 -87 51 -162
92 -168 92 -5 0 -9 5 -9 10 0 6 -5 10 -10 10 -6 0 -43 20 -83 44 -39 24 -103
61 -142 82 -38 21 -76 44 -83 51 -7 7 -17 13 -22 13 -5 0 -43 20 -83 45 -41
25 -80 45 -86 45 -6 0 -11 4 -11 8 0 4 -12 13 -27 20 -39 17 -109 56 -125 69
-15 12 -110 68 -148 86 -14 6 -31 17 -38 24 -7 7 -17 13 -22 13 -5 0 -38 18
-72 40 -35 22 -69 40 -75 40 -7 0 -13 3 -13 8 0 4 -10 12 -23 18 -39 19 -141
76 -157 88 -8 6 -24 16 -35 22 -11 6 -42 24 -70 39 -55 31 -127 69 -135 70 -3
0 -26 10 -52 22 -54 24 -138 50 -194 59 -21 3 -43 9 -48 12 -11 7 -271 14
-277 7z"/>
</g>
</svg>
