<?xml version="1.0" standalone="no"?>
<!DOCTYPE svg PUBLIC "-//W3C//DTD SVG 20010904//EN"
 "http://www.w3.org/TR/2001/REC-SVG-20010904/DTD/svg10.dtd">
<svg version="1.0" xmlns="http://www.w3.org/2000/svg"
 width="500.000000pt" height="500.000000pt" viewBox="0 0 500.000000 500.000000"
 preserveAspectRatio="xMidYMid meet">
<metadata>
Created by potrace 1.14, written by Peter Selinger 2001-2017
</metadata>
<g transform="translate(0.000000,500.000000) scale(0.100000,-0.100000)"
fill="#000000" stroke="none">
<path d="M1270 3464 c-285 -42 -528 -215 -669 -478 -68 -125 -94 -239 -95
-406 -1 -111 3 -152 23 -228 56 -221 209 -427 401 -544 305 -184 693 -174 979
26 120 83 233 213 299 342 113 222 118 536 12 769 -56 125 -200 300 -297 362
-15 9 -30 20 -33 23 -12 14 -151 80 -205 98 -130 44 -275 56 -415 36z"/>
<path d="M2810 2586 l0 -814 100 0 c68 0 100 4 101 12 1 6 0 45 0 85 l-2 75
31 -40 c100 -125 257 -183 433 -157 212 30 377 214 415 463 15 98 6 281 -17
365 -71 253 -242 395 -476 395 -157 0 -278 -59 -362 -175 l-21 -29 2 317 1
317 -102 0 -103 0 0 -814z m684 190 c127 -62 194 -207 194 -416 0 -151 -24
-243 -86 -333 -101 -148 -342 -167 -467 -38 -88 91 -126 215 -120 391 4 124
14 168 58 258 37 76 117 142 202 165 50 14 164 0 219 -27z"/>
<path d="M4210 2021 c-1 -32 -2 -168 -1 -208 l1 -43 113 0 112 0 1 130 c0 72
-2 131 -5 131 -3 1 -54 2 -113 3 -92 2 -108 0 -108 -13z"/>
</g>
</svg>
