<svg id="eN8Z3aDSwHL1" xmlns="http://www.w3.org/2000/svg" xmlns:xlink="http://www.w3.org/1999/xlink" viewBox="0 0 300 300" shape-rendering="geometricPrecision" text-rendering="geometricPrecision"><defs><linearGradient id="eN8Z3aDSwHL3-fill" x1="0" y1="0.5" x2="1" y2="0.5" spreadMethod="pad" gradientUnits="objectBoundingBox" gradientTransform="translate(0 0)"><stop id="eN8Z3aDSwHL3-fill-0" offset="0%" stop-color="#b191ff"/><stop id="eN8Z3aDSwHL3-fill-1" offset="79%" stop-color="#ff88e1"/><stop id="eN8Z3aDSwHL3-fill-2" offset="100%" stop-color="#ff8eb3"/></linearGradient></defs><g transform="matrix(1.5 0 0 1.5-58.420223-42.355411)"><rect width="209.708986" height="204.097038" rx="24" ry="24" transform="matrix(.647106 0 0 0.715346 71.094828 55.255416)" fill="url(#eN8Z3aDSwHL3-fill)" stroke-width="0"/><path d="M196.67677,73.73587v41.01519c-5.99558,24.15207-27.8211,42.05262-53.82752,42.05262h-13.90459v-19.91294h11.02864c19.88225,0,36-16.11775,36-36v-27.15487h20.70347Z" transform="translate(-30.429496-18.53587)" fill="#fff" stroke-width="0"/><path d="M196.67677,73.73587v41.01519c-5.99558,24.15207-27.8211,42.05262-53.82752,42.05262h-13.90459v-19.91294h11.02864c19.88225,0,36-16.11775,36-36v-27.15487h20.70347Z" transform="matrix(1 0 0-1-30.429496 274.991286)" fill="#fff" stroke-width="0"/></g></svg>
